<?xml version="1.0" encoding="UTF-8"?>
<svg xmlns="http://www.w3.org/2000/svg" xmlns:xlink="http://www.w3.org/1999/xlink" width="32px" height="32px" viewBox="0 0 32 32" version="1.1">
<defs>
<linearGradient id="linear0" gradientUnits="userSpaceOnUse" x1="1.86291" y1="-52.5005" x2="317.446991" y2="226.511993" gradientTransform="matrix(0.125,0,0,0.125,0,0)">
<stop offset="0.265" style="stop-color:rgb(100%,65.098041%,18.431373%);stop-opacity:1;"/>
<stop offset="0.475" style="stop-color:rgb(97.254902%,74.117649%,42.745098%);stop-opacity:1;"/>
<stop offset="0.74" style="stop-color:rgb(100%,65.098041%,18.431373%);stop-opacity:1;"/>
</linearGradient>
<filter id="alpha" filterUnits="objectBoundingBox" x="0%" y="0%" width="100%" height="100%">
  <feColorMatrix type="matrix" in="SourceGraphic" values="0 0 0 0 1 0 0 0 0 1 0 0 0 0 1 0 0 0 1 0"/>
</filter>
<mask id="mask0">
  <g filter="url(#alpha)">
<rect x="0" y="0" width="32" height="32" style="fill:rgb(0%,0%,0%);fill-opacity:0.07;stroke:none;"/>
  </g>
</mask>
<clipPath id="clip1">
  <rect x="0" y="0" width="32" height="32"/>
</clipPath>
<g id="surface5" clip-path="url(#clip1)">
<path style=" stroke:none;fill-rule:nonzero;fill:rgb(0%,0%,0%);fill-opacity:1;" d="M 19.511719 12.316406 C 20.195312 11.722656 20.359375 11.011719 19.875 10.15625 L 19.457031 10.15625 Z M 19.511719 12.316406 "/>
</g>
<mask id="mask1">
  <g filter="url(#alpha)">
<rect x="0" y="0" width="32" height="32" style="fill:rgb(0%,0%,0%);fill-opacity:0.2;stroke:none;"/>
  </g>
</mask>
<clipPath id="clip2">
  <rect x="0" y="0" width="32" height="32"/>
</clipPath>
<g id="surface8" clip-path="url(#clip2)">
<path style=" stroke:none;fill-rule:nonzero;fill:rgb(100%,100%,100%);fill-opacity:1;" d="M 15.390625 12.09375 C 15.035156 12.207031 14.460938 12.769531 13.78125 13.589844 C 13.171875 14.328125 12.476562 15.277344 11.785156 16.296875 C 11.246094 17.085938 10.707031 17.921875 10.207031 18.734375 C 8.703125 21.183594 7.578125 23.421875 7.941406 23.628906 C 8.074219 23.703125 8.480469 23.59375 9.070312 23.34375 C 9.070312 23.34375 8.359375 23.6875 9.542969 21.289062 C 10.726562 18.890625 15.390625 12.09375 15.390625 12.09375 Z M 15.390625 12.09375 "/>
</g>
<mask id="mask2">
  <g filter="url(#alpha)">
<rect x="0" y="0" width="32" height="32" style="fill:rgb(0%,0%,0%);fill-opacity:0.07;stroke:none;"/>
  </g>
</mask>
<clipPath id="clip3">
  <rect x="0" y="0" width="32" height="32"/>
</clipPath>
<g id="surface11" clip-path="url(#clip3)">
<path style=" stroke:none;fill-rule:nonzero;fill:rgb(0%,0%,0%);fill-opacity:1;" d="M 15.386719 12.09375 C 16.253906 11.820312 17.433594 12.484375 18.347656 13.40625 C 19.1875 14.253906 19.796875 15.324219 19.71875 16.078125 C 19.679688 16.457031 19.035156 17.113281 18.058594 17.882812 C 17.300781 18.488281 16.339844 19.160156 15.316406 19.828125 C 14.511719 20.355469 13.667969 20.878906 12.847656 21.359375 C 10.460938 22.765625 8.285156 23.824219 7.941406 23.628906 C 7.941406 23.628906 15.1875 19.5625 17.148438 16.808594 C 19.113281 14.058594 15.386719 12.09375 15.386719 12.09375 Z M 15.386719 12.09375 "/>
</g>
</defs>
<g id="surface1">
<path style=" stroke:none;fill-rule:nonzero;fill:url(#linear0);" d="M 32 16 C 32 7.164062 24.835938 0 16 0 C 7.164062 0 0 7.164062 0 16 C 0 24.835938 7.164062 32 16 32 C 24.835938 32 32 24.835938 32 16 Z M 32 16 "/>
<path style=" stroke:none;fill-rule:nonzero;fill:rgb(100%,100%,100%);fill-opacity:1;" d="M 15.535156 30.6875 C 15.605469 31.246094 16.425781 31.246094 16.484375 30.6875 L 16.667969 28.929688 C 16.445312 28.941406 16.222656 28.945312 15.996094 28.945312 C 15.773438 28.945312 15.546875 28.941406 15.324219 28.929688 Z M 15.535156 30.6875 "/>
<path style=" stroke:none;fill-rule:nonzero;fill:rgb(100%,100%,100%);fill-opacity:1;" d="M 15.128906 3.070312 C 15.351562 3.058594 15.578125 3.054688 15.800781 3.054688 C 16.027344 3.054688 16.25 3.058594 16.472656 3.070312 L 16.261719 1.3125 C 16.195312 0.753906 15.375 0.753906 15.316406 1.3125 Z M 15.128906 3.070312 "/>
<path style=" stroke:none;fill-rule:nonzero;fill:rgb(100%,100%,100%);fill-opacity:1;" d="M 19.191406 3.492188 C 19.625 3.609375 20.054688 3.746094 20.46875 3.90625 L 20.8125 2.175781 C 20.925781 1.625 20.140625 1.371094 19.910156 1.886719 Z M 19.191406 3.492188 "/>
<path style=" stroke:none;fill-rule:nonzero;fill:rgb(100%,100%,100%);fill-opacity:1;" d="M 22.925781 5.144531 C 23.304688 5.390625 23.667969 5.652344 24.015625 5.929688 L 24.882812 4.394531 C 25.160156 3.902344 24.492188 3.425781 24.113281 3.839844 Z M 22.925781 5.144531 "/>
<path style=" stroke:none;fill-rule:nonzero;fill:rgb(100%,100%,100%);fill-opacity:1;" d="M 25.972656 7.859375 C 26.257812 8.203125 26.523438 8.566406 26.773438 8.9375 L 28.074219 7.746094 C 28.492188 7.367188 28.003906 6.707031 27.515625 6.988281 Z M 25.972656 7.859375 "/>
<path style=" stroke:none;fill-rule:nonzero;fill:rgb(100%,100%,100%);fill-opacity:1;" d="M 28.039062 11.367188 C 28.203125 11.78125 28.34375 12.203125 28.464844 12.636719 L 30.074219 11.90625 C 30.589844 11.675781 30.332031 10.898438 29.777344 11.011719 Z M 28.039062 11.367188 "/>
<path style=" stroke:none;fill-rule:nonzero;fill:rgb(100%,100%,100%);fill-opacity:1;" d="M 28.910156 15.332031 C 28.921875 15.554688 28.929688 15.777344 28.933594 16 C 28.933594 16.222656 28.929688 16.445312 28.921875 16.667969 L 30.6875 16.46875 C 31.25 16.40625 31.246094 15.59375 30.679688 15.53125 Z M 28.910156 15.332031 "/>
<path style=" stroke:none;fill-rule:nonzero;fill:rgb(100%,100%,100%);fill-opacity:1;" d="M 28.515625 19.363281 C 28.402344 19.796875 28.265625 20.21875 28.109375 20.632812 L 29.851562 20.984375 C 30.410156 21.097656 30.65625 20.324219 30.136719 20.089844 Z M 28.515625 19.363281 "/>
<path style=" stroke:none;fill-rule:nonzero;fill:rgb(100%,100%,100%);fill-opacity:1;" d="M 26.878906 23.058594 C 26.636719 23.433594 26.375 23.792969 26.097656 24.140625 L 27.648438 25.011719 C 28.144531 25.289062 28.621094 24.632812 28.199219 24.25 Z M 26.878906 23.058594 "/>
<path style=" stroke:none;fill-rule:nonzero;fill:rgb(100%,100%,100%);fill-opacity:1;" d="M 24.167969 26.066406 C 23.824219 26.347656 23.464844 26.609375 23.089844 26.851562 L 24.296875 28.15625 C 24.683594 28.574219 25.34375 28.09375 25.058594 27.605469 Z M 24.167969 26.066406 "/>
<path style=" stroke:none;fill-rule:nonzero;fill:rgb(100%,100%,100%);fill-opacity:1;" d="M 20.652344 28.09375 C 20.238281 28.253906 19.8125 28.390625 19.378906 28.503906 L 20.125 30.113281 C 20.363281 30.625 21.140625 30.375 21.023438 29.820312 Z M 20.652344 28.09375 "/>
<path style=" stroke:none;fill-rule:nonzero;fill:rgb(100%,100%,100%);fill-opacity:1;" d="M 12.808594 3.496094 C 12.375 3.609375 11.945312 3.75 11.53125 3.90625 L 11.1875 2.179688 C 11.078125 1.625 11.859375 1.375 12.089844 1.886719 Z M 12.808594 3.496094 "/>
<path style=" stroke:none;fill-rule:nonzero;fill:rgb(100%,100%,100%);fill-opacity:1;" d="M 9.074219 5.148438 C 8.695312 5.390625 8.332031 5.652344 7.980469 5.933594 L 7.113281 4.394531 C 6.839844 3.90625 7.503906 3.425781 7.886719 3.84375 Z M 9.074219 5.148438 "/>
<path style=" stroke:none;fill-rule:nonzero;fill:rgb(100%,100%,100%);fill-opacity:1;" d="M 6.027344 7.859375 C 5.742188 8.207031 5.476562 8.566406 5.226562 8.941406 L 3.921875 7.75 C 3.507812 7.367188 3.992188 6.710938 4.484375 6.988281 Z M 6.027344 7.859375 "/>
<path style=" stroke:none;fill-rule:nonzero;fill:rgb(100%,100%,100%);fill-opacity:1;" d="M 3.960938 11.371094 C 3.796875 11.785156 3.65625 12.207031 3.535156 12.640625 L 1.925781 11.910156 C 1.410156 11.675781 1.667969 10.902344 2.222656 11.015625 Z M 3.960938 11.371094 "/>
<path style=" stroke:none;fill-rule:nonzero;fill:rgb(100%,100%,100%);fill-opacity:1;" d="M 3.089844 15.332031 C 3.078125 15.554688 3.070312 15.777344 3.066406 16 C 3.066406 16.222656 3.070312 16.445312 3.078125 16.667969 L 1.3125 16.472656 C 0.75 16.40625 0.753906 15.59375 1.320312 15.53125 Z M 3.089844 15.332031 "/>
<path style=" stroke:none;fill-rule:nonzero;fill:rgb(100%,100%,100%);fill-opacity:1;" d="M 3.484375 19.363281 C 3.597656 19.796875 3.734375 20.21875 3.890625 20.632812 L 2.148438 20.988281 C 1.59375 21.101562 1.34375 20.324219 1.863281 20.09375 Z M 3.484375 19.363281 "/>
<path style=" stroke:none;fill-rule:nonzero;fill:rgb(100%,100%,100%);fill-opacity:1;" d="M 5.121094 23.0625 C 5.363281 23.4375 5.625 23.796875 5.90625 24.140625 L 4.351562 25.015625 C 3.855469 25.292969 3.378906 24.632812 3.800781 24.253906 Z M 5.121094 23.0625 "/>
<path style=" stroke:none;fill-rule:nonzero;fill:rgb(100%,100%,100%);fill-opacity:1;" d="M 7.832031 26.070312 C 8.175781 26.351562 8.535156 26.613281 8.910156 26.855469 L 7.703125 28.160156 C 7.316406 28.574219 6.65625 28.097656 6.941406 27.605469 Z M 7.832031 26.070312 "/>
<path style=" stroke:none;fill-rule:nonzero;fill:rgb(100%,100%,100%);fill-opacity:1;" d="M 11.347656 28.097656 C 11.761719 28.253906 12.1875 28.390625 12.621094 28.507812 L 11.875 30.113281 C 11.636719 30.628906 10.859375 30.375 10.980469 29.824219 Z M 11.347656 28.097656 "/>
<path style=" stroke:none;fill-rule:nonzero;fill:rgb(100%,100%,100%);fill-opacity:1;" d="M 12.238281 22.996094 C 11.527344 22.996094 10.953125 22.421875 10.953125 21.710938 C 10.953125 21 11.527344 20.425781 12.238281 20.425781 C 12.945312 20.425781 13.523438 21 13.523438 21.710938 C 13.523438 22.421875 12.945312 22.996094 12.238281 22.996094 Z M 12.238281 22.996094 "/>
<path style=" stroke:none;fill-rule:nonzero;fill:rgb(100%,100%,100%);fill-opacity:1;" d="M 10.800781 19.960938 C 11.234375 20.308594 11.613281 20.714844 11.921875 21.175781 Z M 10.800781 19.960938 "/>
<path style=" stroke:none;fill-rule:nonzero;fill:rgb(100%,100%,100%);fill-opacity:1;" d="M 11.921875 22.460938 C 11.507812 22.460938 11.105469 22.261719 10.855469 21.894531 C 10.621094 21.542969 10.332031 21.230469 10.003906 20.96875 C 9.449219 20.527344 9.355469 19.71875 9.796875 19.164062 C 10.238281 18.605469 11.046875 18.515625 11.601562 18.957031 C 12.136719 19.382812 12.605469 19.886719 12.988281 20.457031 C 13.382812 21.046875 13.226562 21.84375 12.640625 22.242188 C 12.417969 22.390625 12.167969 22.460938 11.921875 22.460938 Z M 11.921875 22.460938 "/>
<path style=" stroke:none;fill-rule:nonzero;fill:rgb(100%,100%,100%);fill-opacity:1;" d="M 14.855469 19.054688 C 14.820312 19 14.78125 18.945312 14.746094 18.890625 Z M 14.855469 19.054688 "/>
<path style=" stroke:none;fill-rule:nonzero;fill:rgb(100%,100%,100%);fill-opacity:1;" d="M 14.859375 20.339844 C 14.449219 20.339844 14.046875 20.144531 13.796875 19.777344 L 13.765625 19.738281 C 13.742188 19.703125 13.71875 19.667969 13.695312 19.632812 C 13.285156 19.050781 13.425781 18.25 14.003906 17.839844 C 14.585938 17.429688 15.386719 17.570312 15.796875 18.152344 C 15.828125 18.199219 15.859375 18.246094 15.890625 18.292969 L 15.917969 18.332031 C 16.316406 18.917969 16.164062 19.71875 15.578125 20.117188 C 15.359375 20.265625 15.105469 20.339844 14.859375 20.339844 Z M 14.859375 20.339844 "/>
<path style=" stroke:none;fill-rule:nonzero;fill:rgb(100%,100%,100%);fill-opacity:1;" d="M 12.359375 16.625 C 12.875 16.949219 13.351562 17.324219 13.78125 17.75 Z M 12.359375 16.625 "/>
<path style=" stroke:none;fill-rule:nonzero;fill:rgb(100%,100%,100%);fill-opacity:1;" d="M 13.78125 19.035156 C 13.457031 19.035156 13.128906 18.910156 12.878906 18.664062 C 12.515625 18.304688 12.113281 17.988281 11.679688 17.714844 C 11.078125 17.339844 10.894531 16.542969 11.273438 15.945312 C 11.648438 15.34375 12.441406 15.160156 13.042969 15.539062 C 13.632812 15.910156 14.1875 16.34375 14.683594 16.835938 C 15.1875 17.335938 15.191406 18.148438 14.695312 18.652344 C 14.441406 18.910156 14.113281 19.035156 13.78125 19.035156 Z M 13.78125 19.035156 "/>
<path style=" stroke:none;fill-rule:nonzero;fill:rgb(100%,100%,100%);fill-opacity:1;" d="M 17.246094 16.660156 C 17.125 16.496094 16.996094 16.335938 16.863281 16.179688 Z M 17.246094 16.660156 "/>
<path style=" stroke:none;fill-rule:nonzero;fill:rgb(100%,100%,100%);fill-opacity:1;" d="M 17.25 17.945312 C 16.859375 17.945312 16.472656 17.765625 16.222656 17.429688 C 16.117188 17.289062 16 17.144531 15.882812 17.003906 C 15.425781 16.460938 15.496094 15.652344 16.039062 15.195312 C 16.582031 14.738281 17.390625 14.808594 17.847656 15.351562 C 17.996094 15.527344 18.140625 15.707031 18.273438 15.886719 C 18.699219 16.453125 18.585938 17.257812 18.019531 17.6875 C 17.789062 17.859375 17.515625 17.945312 17.25 17.945312 Z M 17.25 17.945312 "/>
<path style=" stroke:none;fill-rule:nonzero;fill:rgb(100%,100%,100%);fill-opacity:1;" d="M 18.34375 13.40625 C 19.183594 14.257812 19.796875 15.324219 19.71875 16.082031 C 19.679688 16.457031 19.03125 17.113281 18.058594 17.886719 C 17.296875 18.488281 16.335938 19.160156 15.3125 19.832031 C 14.507812 20.355469 13.664062 20.878906 12.84375 21.359375 C 12.640625 21.480469 12.4375 21.597656 12.238281 21.710938 C 10.996094 22.421875 9.855469 23.015625 9.050781 23.351562 C 8.984375 23.378906 8.914062 23.410156 8.851562 23.433594 C 8.792969 23.457031 8.738281 23.476562 8.683594 23.496094 C 8.609375 23.523438 8.539062 23.546875 8.476562 23.566406 C 8.464844 23.570312 8.453125 23.574219 8.441406 23.578125 C 8.402344 23.589844 8.371094 23.597656 8.335938 23.605469 C 8.320312 23.613281 8.300781 23.617188 8.28125 23.621094 C 8.265625 23.625 8.246094 23.628906 8.230469 23.632812 C 8.191406 23.640625 8.160156 23.644531 8.128906 23.648438 C 8.117188 23.648438 8.105469 23.648438 8.09375 23.652344 C 8.023438 23.65625 7.972656 23.648438 7.9375 23.628906 C 7.574219 23.421875 8.699219 21.183594 10.203125 18.734375 C 10.703125 17.921875 11.242188 17.089844 11.78125 16.296875 C 12.472656 15.277344 13.167969 14.328125 13.78125 13.589844 C 14.457031 12.769531 15.035156 12.207031 15.386719 12.09375 C 16.25 11.820312 17.433594 12.484375 18.34375 13.40625 Z M 18.34375 13.40625 "/>
<path style=" stroke:none;fill-rule:nonzero;fill:rgb(100%,100%,100%);fill-opacity:1;" d="M 8.054688 24.9375 C 7.78125 24.9375 7.527344 24.875 7.304688 24.746094 C 6.96875 24.554688 6.730469 24.242188 6.632812 23.859375 C 6.515625 23.394531 6.316406 22.613281 9.109375 18.0625 C 9.628906 17.214844 10.1875 16.355469 10.71875 15.570312 C 11.46875 14.472656 12.183594 13.507812 12.789062 12.773438 C 13.972656 11.335938 14.570312 11.003906 14.996094 10.871094 C 15.253906 10.789062 15.527344 10.746094 15.804688 10.746094 C 17.351562 10.746094 18.734375 11.972656 19.253906 12.503906 C 19.707031 12.957031 21.164062 14.570312 20.992188 16.210938 C 20.914062 16.984375 20.3125 17.734375 18.851562 18.890625 C 18.105469 19.484375 17.125 20.183594 16.015625 20.90625 C 15.207031 21.433594 14.335938 21.972656 13.496094 22.46875 C 13.292969 22.585938 13.085938 22.707031 12.875 22.828125 C 11.558594 23.582031 10.375 24.1875 9.546875 24.535156 C 9.472656 24.570312 9.390625 24.601562 9.316406 24.632812 C 9.253906 24.65625 9.183594 24.679688 9.121094 24.703125 C 9.027344 24.738281 8.9375 24.769531 8.851562 24.796875 L 8.828125 24.800781 C 8.828125 24.800781 8.824219 24.804688 8.820312 24.804688 C 8.757812 24.824219 8.707031 24.839844 8.652344 24.851562 C 8.625 24.859375 8.601562 24.863281 8.574219 24.871094 C 8.539062 24.878906 8.503906 24.886719 8.472656 24.894531 C 8.402344 24.90625 8.332031 24.917969 8.265625 24.925781 C 8.238281 24.929688 8.210938 24.929688 8.179688 24.933594 C 8.136719 24.933594 8.09375 24.9375 8.050781 24.9375 Z M 15.8125 13.316406 C 15.699219 13.402344 15.382812 13.667969 14.769531 14.410156 C 14.210938 15.085938 13.546875 15.988281 12.839844 17.019531 C 12.328125 17.773438 11.796875 18.597656 11.296875 19.40625 C 10.828125 20.175781 10.441406 20.839844 10.132812 21.402344 C 10.585938 21.167969 11.078125 20.894531 11.601562 20.597656 C 11.796875 20.484375 11.992188 20.371094 12.191406 20.253906 C 13 19.777344 13.835938 19.257812 14.613281 18.753906 C 15.65625 18.074219 16.570312 17.425781 17.257812 16.878906 C 17.980469 16.308594 18.292969 15.976562 18.421875 15.820312 C 18.351562 15.53125 18.054688 14.941406 17.429688 14.3125 C 16.714844 13.585938 16.070312 13.324219 15.8125 13.320312 Z M 15.8125 13.316406 "/>
<path style=" stroke:none;fill-rule:nonzero;fill:rgb(100%,100%,100%);fill-opacity:1;" d="M 18.417969 13.320312 C 18.394531 13.347656 18.367188 13.375 18.34375 13.40625 C 18.59375 12.222656 18.652344 11.125 18.207031 10.246094 C 17.859375 10.824219 17.203125 10.433594 17.554688 9.855469 C 17.226562 10.371094 16.457031 9.886719 16.789062 9.371094 C 16.03125 9.683594 15.675781 8.824219 16.433594 8.511719 C 15.71875 8.285156 16.09375 7.128906 16.808594 7.359375 C 16.910156 6.929688 18.011719 7.1875 17.910156 7.621094 C 18.257812 7.128906 19.023438 7.667969 18.675781 8.160156 C 19.257812 7.910156 19.722656 8.988281 19.140625 9.238281 C 19.292969 9.546875 19.398438 9.855469 19.453125 10.160156 L 19.453125 10.15625 L 19.699219 10.15625 C 19.894531 9.769531 20.480469 9.476562 20.800781 9.765625 C 20.304688 9.160156 21.15625 8.339844 21.757812 8.921875 C 21.191406 8.265625 22.125 7.46875 22.691406 8.121094 C 23.660156 7.347656 24.347656 8.207031 23.382812 8.980469 C 24.378906 9.484375 23.894531 10.433594 22.898438 9.929688 C 23.796875 10.78125 22.992188 11.621094 22.09375 10.765625 C 22.902344 11.476562 21.78125 12.742188 20.972656 12.03125 C 20.039062 11.941406 19.210938 12.449219 18.445312 13.292969 C 18.433594 13.300781 18.425781 13.3125 18.417969 13.320312 Z M 18.417969 13.320312 "/>
<path style=" stroke:none;fill-rule:nonzero;fill:rgb(100%,100%,100%);fill-opacity:1;" d="M 18.34375 14.691406 C 18.144531 14.691406 17.941406 14.644531 17.753906 14.546875 C 17.242188 14.28125 16.96875 13.707031 17.085938 13.140625 C 17.203125 12.585938 17.257812 12.117188 17.25 11.722656 C 16.984375 11.628906 16.746094 11.464844 16.558594 11.246094 C 16.207031 11.117188 15.902344 10.871094 15.695312 10.550781 C 15.21875 10.324219 14.867188 9.890625 14.761719 9.351562 C 14.703125 9.046875 14.726562 8.742188 14.824219 8.464844 C 14.761719 8.21875 14.746094 7.953125 14.789062 7.679688 C 14.921875 6.835938 15.546875 6.199219 16.328125 6.070312 C 16.582031 5.929688 16.882812 5.855469 17.207031 5.855469 C 17.53125 5.855469 17.949219 5.9375 18.316406 6.140625 C 18.960938 6.160156 19.558594 6.539062 19.855469 7.117188 C 19.871094 7.144531 19.882812 7.171875 19.898438 7.199219 C 20.074219 7.332031 20.230469 7.5 20.355469 7.691406 C 20.410156 7.660156 20.464844 7.632812 20.519531 7.609375 C 20.851562 6.988281 21.5 6.59375 22.203125 6.59375 C 22.371094 6.59375 22.539062 6.617188 22.695312 6.660156 C 22.933594 6.578125 23.167969 6.535156 23.402344 6.535156 C 24.15625 6.535156 24.796875 6.976562 25.035156 7.65625 C 25.152344 7.988281 25.175781 8.410156 25.023438 8.851562 C 25.210938 9.21875 25.265625 9.632812 25.167969 10.046875 C 25.074219 10.441406 24.851562 10.769531 24.542969 11 C 24.523438 11.109375 24.492188 11.222656 24.449219 11.328125 C 24.261719 11.792969 23.886719 12.144531 23.425781 12.304688 C 23.054688 13.042969 22.300781 13.527344 21.496094 13.527344 C 21.1875 13.527344 20.886719 13.457031 20.609375 13.320312 C 20.253906 13.382812 19.847656 13.664062 19.398438 14.152344 C 19.390625 14.160156 19.382812 14.167969 19.378906 14.179688 L 19.371094 14.183594 C 19.34375 14.214844 19.316406 14.246094 19.289062 14.273438 C 19.039062 14.546875 18.695312 14.691406 18.34375 14.691406 Z M 18.34375 14.691406 "/>
<path style=" stroke:none;fill-rule:nonzero;fill:rgb(100%,100%,100%);fill-opacity:1;" d="M 24.1875 14.84375 C 24.453125 15.796875 23.5 16.058594 23.234375 15.101562 C 23.011719 16.1875 22.003906 15.984375 22.226562 14.898438 C 21.652344 15.011719 21.527344 14.78125 21.871094 14.191406 C 21.144531 14.265625 20.90625 14.046875 21.386719 13.40625 C 20.609375 12.734375 19.554688 12.847656 18.34375 13.40625 C 19.472656 12.464844 20.824219 12.164062 22.449219 12.644531 C 22.714844 12.039062 23.835938 12.519531 23.570312 13.128906 C 24.019531 12.710938 24.632812 13.363281 24.1875 13.78125 C 24.785156 13.78125 24.785156 14.84375 24.1875 14.84375 Z M 24.1875 14.84375 "/>
<path style=" stroke:none;fill-rule:nonzero;fill:rgb(100%,100%,100%);fill-opacity:1;" d="M 22.636719 17.109375 C 22.136719 17.109375 21.664062 16.882812 21.34375 16.484375 C 21.210938 16.320312 21.105469 16.136719 21.035156 15.933594 C 20.855469 15.8125 20.707031 15.652344 20.59375 15.457031 C 20.539062 15.359375 20.496094 15.257812 20.460938 15.152344 C 20.230469 14.980469 20.089844 14.773438 20.011719 14.617188 C 19.953125 14.496094 19.910156 14.375 19.882812 14.246094 C 19.652344 14.28125 19.328125 14.367188 18.878906 14.574219 C 18.296875 14.84375 17.601562 14.636719 17.257812 14.089844 C 16.914062 13.542969 17.03125 12.828125 17.523438 12.417969 C 18.847656 11.316406 20.410156 10.914062 22.136719 11.25 C 22.367188 11.140625 22.628906 11.082031 22.902344 11.082031 C 23.503906 11.082031 24.101562 11.367188 24.480469 11.820312 C 24.9375 11.988281 25.320312 12.351562 25.507812 12.820312 C 25.5625 12.96875 25.601562 13.121094 25.617188 13.273438 C 25.808594 13.566406 25.917969 13.921875 25.917969 14.3125 C 25.917969 14.785156 25.753906 15.210938 25.480469 15.53125 C 25.429688 15.824219 25.3125 16.097656 25.140625 16.324219 C 24.816406 16.75 24.332031 16.988281 23.808594 16.988281 C 23.660156 16.988281 23.511719 16.972656 23.371094 16.933594 C 23.132812 17.050781 22.875 17.109375 22.636719 17.109375 Z M 22.636719 17.109375 "/>
<path style=" stroke:none;fill-rule:nonzero;fill:rgb(100%,100%,100%);fill-opacity:1;" d="M 15.160156 14.527344 C 14.851562 14.285156 14.53125 14.054688 14.199219 13.847656 Z M 15.160156 14.527344 "/>
<path style=" stroke:none;fill-rule:nonzero;fill:rgb(100%,100%,100%);fill-opacity:1;" d="M 15.160156 15.8125 C 14.878906 15.8125 14.601562 15.722656 14.363281 15.535156 C 14.09375 15.320312 13.804688 15.117188 13.511719 14.933594 C 12.914062 14.554688 12.734375 13.757812 13.113281 13.160156 C 13.492188 12.558594 14.285156 12.378906 14.882812 12.757812 C 15.253906 12.992188 15.613281 13.25 15.957031 13.519531 C 16.511719 13.957031 16.605469 14.765625 16.167969 15.324219 C 15.914062 15.644531 15.539062 15.8125 15.160156 15.8125 Z M 15.160156 15.8125 "/>
<path style=" stroke:none;fill-rule:nonzero;fill:rgb(100%,100%,100%);fill-opacity:1;" d="M 20.636719 11.039062 C 21.433594 10.375 22.066406 9.667969 22.636719 8.972656 Z M 20.636719 11.039062 "/>
<path style=" stroke:none;fill-rule:nonzero;fill:rgb(100%,100%,100%);fill-opacity:1;" d="M 20.636719 12.324219 C 20.269531 12.324219 19.902344 12.167969 19.648438 11.863281 C 19.195312 11.316406 19.269531 10.503906 19.816406 10.050781 C 20.582031 9.414062 21.167969 8.734375 21.640625 8.15625 C 22.089844 7.609375 22.898438 7.527344 23.449219 7.976562 C 23.996094 8.421875 24.078125 9.234375 23.628906 9.78125 C 23.113281 10.417969 22.398438 11.246094 21.457031 12.027344 C 21.21875 12.226562 20.925781 12.324219 20.636719 12.324219 Z M 20.636719 12.324219 "/>
<path style=" stroke:none;fill-rule:nonzero;fill:rgb(100%,100%,100%);fill-opacity:1;" d="M 16.808594 8.050781 C 17.515625 8.382812 18.078125 8.890625 18.492188 9.570312 Z M 16.808594 8.050781 "/>
<path style=" stroke:none;fill-rule:nonzero;fill:rgb(100%,100%,100%);fill-opacity:1;" d="M 18.492188 10.859375 C 18.058594 10.859375 17.636719 10.636719 17.394531 10.242188 C 17.113281 9.777344 16.742188 9.441406 16.265625 9.21875 C 15.621094 8.917969 15.34375 8.152344 15.644531 7.507812 C 15.945312 6.867188 16.710938 6.589844 17.351562 6.890625 C 18.289062 7.328125 19.042969 8.007812 19.585938 8.902344 C 19.957031 9.511719 19.765625 10.300781 19.160156 10.671875 C 18.949219 10.796875 18.71875 10.859375 18.492188 10.859375 Z M 18.492188 10.859375 "/>
<path style=" stroke:none;fill-rule:nonzero;fill:rgb(100%,100%,100%);fill-opacity:1;" d="M 21.976562 13.175781 C 22.6875 13.472656 23.203125 13.925781 23.527344 14.527344 Z M 21.976562 13.175781 "/>
<path style=" stroke:none;fill-rule:nonzero;fill:rgb(100%,100%,100%);fill-opacity:1;" d="M 23.53125 15.8125 C 23.074219 15.8125 22.628906 15.566406 22.398438 15.136719 C 22.214844 14.796875 21.914062 14.542969 21.476562 14.359375 C 20.824219 14.082031 20.519531 13.328125 20.792969 12.675781 C 21.070312 12.019531 21.824219 11.714844 22.476562 11.988281 C 23.457031 12.40625 24.191406 13.054688 24.65625 13.914062 C 24.996094 14.539062 24.761719 15.320312 24.136719 15.65625 C 23.945312 15.761719 23.734375 15.8125 23.53125 15.8125 Z M 23.53125 15.8125 "/>
<path style=" stroke:none;fill-rule:nonzero;fill:rgb(56.078434%,68.235296%,23.529412%);fill-opacity:1;" d="M 18.34375 13.40625 C 19.558594 12.851562 20.613281 12.734375 21.386719 13.40625 C 20.90625 14.050781 21.144531 14.265625 21.871094 14.191406 C 21.527344 14.78125 21.652344 15.011719 22.226562 14.902344 C 22.003906 15.984375 23.015625 16.191406 23.234375 15.105469 C 23.5 16.0625 24.453125 15.800781 24.1875 14.84375 C 24.789062 14.84375 24.789062 13.785156 24.1875 13.785156 C 24.636719 13.367188 24.019531 12.714844 23.574219 13.132812 C 23.835938 12.523438 22.714844 12.039062 22.453125 12.648438 C 20.828125 12.164062 19.476562 12.46875 18.347656 13.40625 Z M 18.34375 13.40625 "/>
<path style=" stroke:none;fill-rule:evenodd;fill:rgb(0%,0%,0%);fill-opacity:1;" d="M 19.394531 12.75 C 19.023438 12.914062 18.675781 13.132812 18.347656 13.40625 C 18.347656 13.40625 18.34375 13.40625 18.34375 13.40625 L 18.347656 13.40625 C 18.742188 13.222656 19.121094 13.089844 19.480469 13.015625 C 20.21875 12.859375 20.863281 12.957031 21.386719 13.40625 C 20.988281 13.941406 21.085938 14.183594 21.550781 14.207031 C 21.644531 14.210938 21.75 14.207031 21.871094 14.191406 C 21.808594 14.300781 21.761719 14.398438 21.730469 14.480469 C 21.621094 14.765625 21.695312 14.914062 21.941406 14.925781 C 22.019531 14.929688 22.113281 14.921875 22.226562 14.902344 C 22.207031 15.003906 22.195312 15.101562 22.195312 15.1875 C 22.191406 15.882812 22.789062 16.042969 23.097656 15.496094 C 23.15625 15.390625 23.203125 15.261719 23.234375 15.105469 C 23.277344 15.261719 23.339844 15.382812 23.410156 15.476562 C 23.730469 15.898438 24.257812 15.710938 24.234375 15.121094 C 24.230469 15.035156 24.214844 14.945312 24.1875 14.84375 C 24.277344 14.84375 24.351562 14.820312 24.414062 14.78125 C 24.691406 14.605469 24.710938 14.105469 24.46875 13.886719 C 24.398438 13.824219 24.304688 13.785156 24.1875 13.785156 C 24.277344 13.703125 24.324219 13.613281 24.339844 13.523438 C 24.382812 13.257812 24.152344 12.996094 23.886719 12.996094 C 23.785156 12.996094 23.671875 13.039062 23.574219 13.132812 C 23.625 13.011719 23.625 12.894531 23.582031 12.792969 C 23.425781 12.375 22.664062 12.160156 22.453125 12.648438 C 21.300781 12.304688 20.289062 12.359375 19.394531 12.75 Z M 22.332031 12.328125 C 20.710938 11.902344 19.328125 12.230469 18.167969 13.195312 L 18.261719 13.308594 L 18.34375 13.683594 L 18.445312 13.683594 L 18.496094 13.640625 C 19.554688 13.164062 20.390625 13.078125 21.011719 13.472656 C 20.960938 13.558594 20.917969 13.648438 20.894531 13.730469 C 20.847656 13.886719 20.839844 14.070312 20.953125 14.230469 C 21.058594 14.378906 21.230469 14.4375 21.375 14.464844 C 21.398438 14.46875 21.417969 14.472656 21.441406 14.472656 C 21.4375 14.480469 21.4375 14.488281 21.433594 14.496094 C 21.398438 14.625 21.382812 14.789062 21.460938 14.9375 C 21.542969 15.097656 21.691406 15.167969 21.832031 15.191406 C 21.863281 15.195312 21.890625 15.199219 21.917969 15.203125 C 21.917969 15.371094 21.949219 15.519531 22.007812 15.652344 C 22.101562 15.875 22.28125 16.039062 22.511719 16.085938 C 22.8125 16.148438 23.082031 16 23.269531 15.734375 C 23.464844 15.9375 23.714844 16.03125 23.984375 15.960938 C 24.359375 15.855469 24.539062 15.484375 24.503906 15.046875 C 24.601562 15 24.683594 14.929688 24.746094 14.84375 C 24.863281 14.6875 24.914062 14.496094 24.914062 14.3125 C 24.914062 14.132812 24.863281 13.941406 24.746094 13.785156 C 24.703125 13.726562 24.652344 13.675781 24.59375 13.636719 C 24.613281 13.570312 24.621094 13.507812 24.621094 13.441406 C 24.617188 13.25 24.535156 13.078125 24.417969 12.953125 C 24.296875 12.828125 24.128906 12.738281 23.941406 12.722656 C 23.910156 12.722656 23.882812 12.71875 23.851562 12.722656 C 23.835938 12.671875 23.8125 12.621094 23.785156 12.574219 C 23.675781 12.390625 23.503906 12.257812 23.320312 12.179688 C 23.136719 12.101562 22.921875 12.066406 22.714844 12.113281 C 22.574219 12.144531 22.4375 12.214844 22.332031 12.328125 Z M 22.332031 12.328125 "/>
<path style=" stroke:none;fill-rule:nonzero;fill:rgb(56.078434%,68.235296%,23.529412%);fill-opacity:1;" d="M 18.34375 13.40625 C 19.140625 12.5 20 11.941406 20.976562 12.03125 C 21.785156 12.742188 22.90625 11.480469 22.097656 10.769531 C 22.992188 11.621094 23.796875 10.785156 22.898438 9.929688 C 23.894531 10.4375 24.382812 9.488281 23.386719 8.980469 C 24.351562 8.207031 23.660156 7.351562 22.695312 8.125 C 22.128906 7.46875 21.195312 8.269531 21.761719 8.925781 C 21.136719 8.316406 20.242188 9.230469 20.867188 9.835938 C 20.4375 9.269531 19.296875 10.128906 19.726562 10.695312 C 19.746094 11.585938 19.175781 12.496094 18.347656 13.40625 Z M 18.34375 13.40625 "/>
<path style=" stroke:none;fill-rule:evenodd;fill:rgb(0%,0%,0%);fill-opacity:1;" d="M 17.734375 13.683594 L 18.136719 13.222656 C 18.179688 13.175781 18.21875 13.132812 18.261719 13.085938 C 18.988281 12.261719 19.433594 11.496094 19.449219 10.777344 C 19.332031 10.570312 19.332031 10.34375 19.402344 10.148438 C 19.476562 9.9375 19.632812 9.75 19.808594 9.621094 C 19.96875 9.5 20.167969 9.40625 20.378906 9.382812 C 20.378906 9.367188 20.378906 9.355469 20.378906 9.34375 C 20.386719 9.105469 20.492188 8.890625 20.648438 8.730469 C 20.800781 8.574219 21.015625 8.464844 21.253906 8.449219 C 21.273438 8.449219 21.289062 8.449219 21.308594 8.449219 C 21.308594 8.433594 21.3125 8.417969 21.3125 8.402344 C 21.335938 8.167969 21.457031 7.964844 21.621094 7.824219 C 21.789062 7.683594 22.007812 7.59375 22.242188 7.605469 C 22.40625 7.613281 22.570312 7.667969 22.714844 7.769531 C 22.921875 7.640625 23.128906 7.566406 23.320312 7.546875 C 23.578125 7.527344 23.824219 7.605469 23.980469 7.800781 C 24.136719 7.992188 24.160156 8.25 24.085938 8.496094 C 24.035156 8.644531 23.949219 8.796875 23.824219 8.941406 C 24.164062 9.226562 24.3125 9.613281 24.136719 9.960938 C 24.011719 10.203125 23.78125 10.328125 23.507812 10.347656 C 23.617188 10.652344 23.585938 10.957031 23.371094 11.179688 C 23.179688 11.378906 22.925781 11.4375 22.652344 11.386719 C 22.644531 11.664062 22.523438 11.921875 22.347656 12.117188 C 22.171875 12.316406 21.925781 12.46875 21.644531 12.507812 C 21.382812 12.546875 21.113281 12.484375 20.867188 12.300781 C 20.101562 12.261719 19.386719 12.683594 18.671875 13.457031 C 18.632812 13.5 18.59375 13.546875 18.550781 13.59375 L 18.46875 13.683594 Z M 18.34375 13.40625 L 18.347656 13.40625 C 18.386719 13.359375 18.425781 13.316406 18.46875 13.269531 C 18.785156 12.929688 19.109375 12.640625 19.449219 12.429688 C 19.929688 12.132812 20.433594 11.980469 20.976562 12.03125 C 21.605469 12.585938 22.425781 11.941406 22.375 11.292969 C 22.359375 11.121094 22.285156 10.953125 22.132812 10.804688 C 22.304688 10.957031 22.46875 11.050781 22.617188 11.09375 C 23.125 11.242188 23.460938 10.84375 23.203125 10.328125 C 23.140625 10.199219 23.042969 10.066406 22.898438 9.929688 C 23.074219 10.019531 23.234375 10.0625 23.375 10.074219 C 23.945312 10.109375 24.15625 9.554688 23.628906 9.136719 C 23.5625 9.082031 23.480469 9.027344 23.386719 8.980469 C 23.46875 8.914062 23.539062 8.847656 23.597656 8.78125 C 24.230469 8.074219 23.578125 7.417969 22.695312 8.125 C 22.25 7.609375 21.582031 7.992188 21.585938 8.496094 C 21.585938 8.636719 21.636719 8.785156 21.761719 8.925781 C 21.625 8.796875 21.480469 8.734375 21.339844 8.726562 C 20.972656 8.703125 20.640625 9.03125 20.652344 9.394531 C 20.660156 9.519531 20.703125 9.648438 20.800781 9.765625 C 20.695312 9.671875 20.5625 9.640625 20.425781 9.65625 C 19.949219 9.699219 19.410156 10.277344 19.726562 10.695312 C 19.738281 11.203125 19.554688 11.714844 19.246094 12.230469 C 19.039062 12.578125 18.773438 12.921875 18.46875 13.269531 C 18.425781 13.316406 18.386719 13.359375 18.347656 13.40625 C 18.347656 13.40625 18.34375 13.40625 18.34375 13.40625 Z M 18.34375 13.40625 "/>
<path style=" stroke:none;fill-rule:nonzero;fill:rgb(56.078434%,68.235296%,23.529412%);fill-opacity:1;" d="M 18.34375 13.40625 C 18.59375 12.222656 18.65625 11.125 18.210938 10.246094 C 17.859375 10.828125 17.207031 10.4375 17.554688 9.855469 C 17.226562 10.371094 16.460938 9.886719 16.789062 9.371094 C 16.035156 9.683594 15.679688 8.828125 16.433594 8.515625 C 15.722656 8.285156 16.09375 7.132812 16.808594 7.363281 C 16.910156 6.929688 18.015625 7.191406 17.910156 7.625 C 18.261719 7.132812 19.027344 7.671875 18.679688 8.164062 C 19.257812 7.914062 19.726562 8.992188 19.144531 9.242188 C 19.851562 10.675781 19.507812 12.058594 18.34375 13.40625 Z M 18.34375 13.40625 "/>
<path style=" stroke:none;fill-rule:evenodd;fill:rgb(0%,0%,0%);fill-opacity:1;" d="M 18.070312 13.378906 L 18.074219 13.347656 C 18.289062 12.347656 18.347656 11.457031 18.109375 10.726562 C 17.910156 10.835938 17.679688 10.84375 17.480469 10.722656 C 17.332031 10.636719 17.242188 10.503906 17.203125 10.351562 C 17.046875 10.355469 16.898438 10.3125 16.777344 10.234375 C 16.632812 10.140625 16.511719 9.996094 16.457031 9.8125 C 16.449219 9.78125 16.441406 9.746094 16.4375 9.714844 C 16.144531 9.699219 15.898438 9.546875 15.789062 9.285156 C 15.679688 9.015625 15.746094 8.730469 15.953125 8.511719 C 15.902344 8.449219 15.863281 8.382812 15.835938 8.308594 C 15.753906 8.101562 15.761719 7.878906 15.824219 7.683594 C 15.886719 7.488281 16.015625 7.300781 16.199219 7.179688 C 16.335938 7.09375 16.5 7.046875 16.671875 7.058594 C 16.757812 6.96875 16.871094 6.917969 16.972656 6.894531 C 17.140625 6.847656 17.332031 6.859375 17.5 6.898438 C 17.667969 6.941406 17.84375 7.015625 17.976562 7.128906 C 18 7.148438 18.019531 7.167969 18.039062 7.191406 C 18.09375 7.171875 18.148438 7.160156 18.203125 7.15625 C 18.390625 7.136719 18.574219 7.199219 18.714844 7.296875 C 18.859375 7.398438 18.976562 7.550781 19.023438 7.734375 C 19.035156 7.78125 19.042969 7.828125 19.042969 7.875 C 19.105469 7.894531 19.164062 7.921875 19.21875 7.953125 C 19.394531 8.058594 19.523438 8.230469 19.601562 8.40625 C 19.675781 8.582031 19.710938 8.792969 19.667969 8.992188 C 19.640625 9.117188 19.582031 9.238281 19.492188 9.332031 C 19.789062 10.03125 19.859375 10.726562 19.714844 11.414062 C 19.5625 12.164062 19.15625 12.890625 18.554688 13.585938 L 18.070312 14.148438 Z M 19.257812 9.496094 C 19.222656 9.410156 19.1875 9.328125 19.144531 9.242188 C 19.160156 9.234375 19.175781 9.226562 19.191406 9.21875 C 19.597656 8.992188 19.386719 8.296875 18.996094 8.152344 C 18.898438 8.117188 18.789062 8.113281 18.679688 8.164062 C 18.75 8.058594 18.777344 7.953125 18.765625 7.855469 C 18.734375 7.589844 18.441406 7.382812 18.179688 7.4375 C 18.082031 7.460938 17.988281 7.519531 17.910156 7.625 C 17.9375 7.515625 17.886719 7.417969 17.796875 7.339844 C 17.535156 7.113281 16.9375 7.046875 16.820312 7.324219 C 16.816406 7.335938 16.8125 7.347656 16.808594 7.363281 C 16.777344 7.351562 16.742188 7.34375 16.710938 7.339844 C 16.171875 7.257812 15.871094 7.96875 16.171875 8.339844 C 16.230469 8.417969 16.320312 8.480469 16.433594 8.515625 C 16.316406 8.5625 16.226562 8.625 16.160156 8.695312 C 15.867188 8.992188 16.042969 9.425781 16.460938 9.4375 C 16.558594 9.441406 16.667969 9.421875 16.789062 9.371094 C 16.71875 9.480469 16.699219 9.589844 16.714844 9.6875 C 16.746094 9.910156 16.964844 10.082031 17.1875 10.078125 C 17.324219 10.074219 17.457031 10.007812 17.554688 9.855469 C 17.457031 10.023438 17.4375 10.171875 17.472656 10.289062 C 17.535156 10.511719 17.785156 10.609375 18.007812 10.464844 C 18.082031 10.417969 18.148438 10.347656 18.210938 10.246094 C 18.257812 10.339844 18.300781 10.4375 18.335938 10.539062 C 18.582031 11.210938 18.582031 11.992188 18.453125 12.832031 C 18.421875 13.019531 18.386719 13.210938 18.34375 13.40625 C 18.34375 13.40625 18.347656 13.40625 18.347656 13.40625 C 18.480469 13.25 18.601562 13.09375 18.714844 12.941406 C 19.515625 11.820312 19.742188 10.671875 19.257812 9.496094 Z M 19.257812 9.496094 "/>
<use xlink:href="#surface5" mask="url(#mask0)"/>
<path style=" stroke:none;fill-rule:nonzero;fill:rgb(97.254902%,53.725493%,8.627451%);fill-opacity:1;" d="M 19.71875 16.078125 C 19.679688 16.457031 19.035156 17.113281 18.058594 17.882812 C 17.300781 18.488281 16.339844 19.160156 15.316406 19.828125 C 14.511719 20.355469 13.667969 20.878906 12.847656 21.359375 C 10.460938 22.765625 8.285156 23.824219 7.941406 23.628906 C 7.578125 23.417969 8.703125 21.183594 10.207031 18.734375 C 10.707031 17.921875 11.246094 17.085938 11.785156 16.292969 C 12.476562 15.277344 13.171875 14.328125 13.78125 13.589844 C 14.460938 12.765625 15.039062 12.203125 15.390625 12.09375 C 16.253906 11.820312 17.433594 12.484375 18.347656 13.40625 C 19.1875 14.253906 19.796875 15.320312 19.71875 16.078125 Z M 19.71875 16.078125 "/>
<use xlink:href="#surface8" mask="url(#mask1)"/>
<use xlink:href="#surface11" mask="url(#mask2)"/>
<path style=" stroke:none;fill-rule:nonzero;fill:rgb(0%,0%,0%);fill-opacity:1;" d="M 8.058594 23.953125 C 7.953125 23.953125 7.863281 23.933594 7.789062 23.890625 C 7.71875 23.851562 7.628906 23.769531 7.589844 23.617188 C 7.535156 23.40625 7.554688 22.992188 8.207031 21.667969 C 8.628906 20.816406 9.230469 19.746094 9.949219 18.574219 C 10.453125 17.757812 11 16.910156 11.535156 16.125 C 12.265625 15.050781 12.960938 14.109375 13.550781 13.398438 C 14.710938 11.992188 15.152344 11.851562 15.296875 11.804688 C 15.457031 11.753906 15.628906 11.730469 15.808594 11.730469 C 16.625 11.730469 17.65625 12.277344 18.5625 13.191406 C 19.332031 13.96875 20.121094 15.144531 20.019531 16.109375 C 19.992188 16.394531 19.777344 16.910156 18.246094 18.121094 C 17.523438 18.695312 16.566406 19.375 15.480469 20.082031 C 14.695312 20.597656 13.835938 21.128906 13 21.617188 C 12.070312 22.167969 8.960938 23.953125 8.058594 23.953125 Z M 15.808594 12.335938 C 15.691406 12.335938 15.578125 12.351562 15.480469 12.382812 C 15.355469 12.421875 14.960938 12.636719 14.015625 13.78125 C 13.4375 14.480469 12.753906 15.40625 12.03125 16.464844 C 11.503906 17.242188 10.960938 18.082031 10.464844 18.890625 C 8.902344 21.4375 8.273438 22.859375 8.183594 23.332031 C 8.726562 23.222656 10.285156 22.515625 12.695312 21.097656 C 13.523438 20.609375 14.371094 20.085938 15.152344 19.574219 C 16.21875 18.878906 17.160156 18.210938 17.871094 17.648438 C 19.304688 16.511719 19.414062 16.117188 19.417969 16.046875 C 19.480469 15.4375 18.964844 14.460938 18.132812 13.617188 C 17.347656 12.828125 16.457031 12.335938 15.808594 12.335938 Z M 15.808594 12.335938 "/>
<path style=" stroke:none;fill-rule:nonzero;fill:rgb(0%,0%,0%);fill-opacity:1;" d="M 12.816406 21.703125 C 12.707031 21.703125 12.601562 21.640625 12.546875 21.539062 C 12.21875 20.902344 11.75 20.332031 11.191406 19.886719 C 11.058594 19.78125 11.039062 19.59375 11.140625 19.460938 C 11.246094 19.332031 11.4375 19.308594 11.566406 19.414062 C 12.191406 19.914062 12.71875 20.550781 13.082031 21.261719 C 13.160156 21.410156 13.101562 21.589844 12.953125 21.667969 C 12.910156 21.691406 12.863281 21.703125 12.816406 21.703125 Z M 12.816406 21.703125 "/>
<path style=" stroke:none;fill-rule:nonzero;fill:rgb(0%,0%,0%);fill-opacity:1;" d="M 13.78125 18.054688 C 13.703125 18.054688 13.628906 18.023438 13.570312 17.964844 C 13 17.40625 12.351562 16.933594 11.640625 16.5625 C 11.496094 16.484375 11.4375 16.304688 11.515625 16.15625 C 11.589844 16.007812 11.773438 15.949219 11.921875 16.027344 C 12.683594 16.421875 13.378906 16.929688 13.992188 17.535156 C 14.113281 17.652344 14.113281 17.84375 13.996094 17.964844 C 13.9375 18.023438 13.859375 18.054688 13.78125 18.054688 Z M 13.78125 18.054688 "/>
<path style=" stroke:none;fill-rule:nonzero;fill:rgb(0%,0%,0%);fill-opacity:1;" d="M 16.675781 19.125 C 16.570312 19.125 16.46875 19.070312 16.410156 18.972656 C 16.078125 18.386719 15.6875 17.828125 15.25 17.3125 C 15.144531 17.183594 15.160156 16.992188 15.289062 16.886719 C 15.414062 16.777344 15.605469 16.792969 15.714844 16.921875 C 16.171875 17.46875 16.582031 18.054688 16.9375 18.671875 C 17.019531 18.816406 16.96875 19.003906 16.824219 19.085938 C 16.777344 19.113281 16.726562 19.125 16.675781 19.125 Z M 16.675781 19.125 "/>
<path style=" stroke:none;fill-rule:nonzero;fill:rgb(0%,0%,0%);fill-opacity:1;" d="M 16.253906 13.902344 C 16.1875 13.902344 16.121094 13.882812 16.066406 13.839844 C 15.640625 13.503906 15.1875 13.195312 14.722656 12.925781 C 14.578125 12.84375 14.527344 12.65625 14.609375 12.511719 C 14.695312 12.367188 14.878906 12.320312 15.023438 12.402344 C 15.515625 12.6875 15.992188 13.011719 16.441406 13.363281 C 16.570312 13.46875 16.59375 13.65625 16.492188 13.789062 C 16.429688 13.863281 16.34375 13.902344 16.253906 13.902344 Z M 16.253906 13.902344 "/>
</g>
</svg>
